<svg data-v-fde0c5aa="" xmlns="http://www.w3.org/2000/svg" viewBox="0 0 300 300" class="iconLeft"><!----><defs data-v-fde0c5aa=""><!----></defs><rect data-v-fde0c5aa="" fill="#F2EDED" x="0" y="0" width="300px" height="300px" class="logo-background-square"></rect><defs data-v-fde0c5aa=""><!----></defs><g data-v-fde0c5aa="" id="8b507b16-8fb4-4d0d-ae90-2a2ca88682ca" fill="#667EEA" transform="matrix(2.72702069175326,0,0,2.72702069175326,114.81341249349795,129.31554794902394)"><path d="M2.91 12.75L0.98 12.75L0.98 7.17L0.98 7.17Q0.98 5.45 1.26 4.96L1.26 4.96L1.26 4.96Q1.54 4.47 2.46 3.63L2.46 3.63L2.46 3.63Q3.37 2.79 3.82 2.79L3.82 2.79L3.82 2.79Q4.44 2.79 5.35 3.28L5.35 3.28L5.35 3.28Q6.26 3.77 6.71 4.38L6.71 4.38L5.15 5.46L5.15 5.46Q4.37 4.68 3.89 4.68L3.89 4.68L3.89 4.68Q3.71 4.68 3.47 4.91L3.47 4.91L3.47 4.91Q3.23 5.14 3.07 5.40L3.07 5.40L3.07 5.40Q2.91 5.66 2.91 6.71L2.91 6.71L2.91 7.03L5.42 7.03L5.42 8.72L2.91 8.72L2.91 12.75ZM7.24 10.61L7.24 5.21L9.09 5.21L9.09 10.42L9.09 10.42Q9.09 10.65 9.31 10.91L9.31 10.91L9.31 10.91Q9.53 11.17 9.73 11.17L9.73 11.17L9.73 11.17Q9.93 11.17 10.54 10.60L10.54 10.60L10.54 5.21L12.39 5.21L12.39 12.75L10.96 12.75L10.79 11.93L10.79 11.93Q9.74 12.92 9.32 12.92L9.32 12.92L9.32 12.92Q8.90 12.92 8.07 12.14L8.07 12.14L8.07 12.14Q7.24 11.37 7.24 10.61L7.24 10.61ZM13.65 10.65L13.65 2.25L15.50 2.25L15.50 10.05L15.50 10.05Q15.50 10.77 15.67 11.16L15.67 11.16L15.67 11.16Q15.83 11.55 16.20 11.84L16.20 11.84L14.66 12.92L14.66 12.92Q13.65 12.12 13.65 10.65L13.65 10.65ZM16.90 10.65L16.90 2.25L18.75 2.25L18.75 10.05L18.75 10.05Q18.75 10.77 18.91 11.16L18.91 11.16L18.91 11.16Q19.08 11.55 19.45 11.84L19.45 11.84L17.91 12.92L17.91 12.92Q16.90 12.12 16.90 10.65L16.90 10.65ZM29.15 8.81L29.15 8.81L29.15 8.81Q29.30 9.06 29.30 9.81L29.30 9.81L29.30 9.81Q29.30 10.56 28.99 11.07L28.99 11.07L28.99 11.07Q28.71 11.48 27.80 12.20L27.80 12.20L27.80 12.20Q26.89 12.92 26.46 12.92L26.46 12.92L26.46 12.92Q25.69 12.92 24.70 12.12L24.70 12.12L24.70 12.12Q23.70 11.31 23.44 10.35L23.44 10.35L24.99 9.28L24.99 9.28Q25.21 9.94 25.70 10.49L25.70 10.49L25.70 10.49Q26.19 11.03 26.40 11.03L26.40 11.03L26.40 11.03Q26.60 11.03 26.83 10.90L26.83 10.90L26.83 10.90Q27.06 10.77 27.19 10.63L27.19 10.63L27.19 10.63Q27.37 10.40 27.37 9.93L27.37 9.93L27.37 9.93Q27.37 9.45 27.15 9.34L27.15 9.34L27.15 9.34Q26.87 9.10 26.06 8.71L26.06 8.71L26.06 8.71Q25.26 8.32 24.57 7.86L24.57 7.86L24.57 7.86Q23.88 7.41 23.70 6.97L23.70 6.97L23.70 6.97Q23.51 6.54 23.51 5.84L23.51 5.84L23.51 5.84Q23.51 5.15 23.81 4.63L23.81 4.63L23.81 4.63Q24.09 4.23 25.00 3.51L25.00 3.51L25.00 3.51Q25.91 2.79 26.35 2.79L26.35 2.79L26.35 2.79Q27.12 2.79 28.11 3.59L28.11 3.59L28.11 3.59Q29.11 4.40 29.37 5.36L29.37 5.36L27.82 6.44L27.82 6.44Q27.59 5.78 27.10 5.23L27.10 5.23L27.10 5.23Q26.61 4.68 26.41 4.68L26.41 4.68L26.41 4.68Q26.21 4.68 25.97 4.80L25.97 4.80L25.97 4.80Q25.73 4.93 25.59 5.12L25.59 5.12L25.59 5.12Q25.44 5.31 25.44 5.76L25.44 5.76L25.44 5.76Q25.44 6.22 25.72 6.37L25.72 6.37L25.72 6.37Q25.94 6.57 26.74 6.99L26.74 6.99L26.74 6.99Q28.78 8.11 29.15 8.81ZM35.31 8.96L35.31 8.96L35.31 9.46L31.92 9.46L31.92 9.46Q31.92 10.30 32.13 10.79L32.13 10.79L32.13 10.79Q32.20 10.96 32.38 11.14L32.38 11.14L32.38 11.14Q32.56 11.31 32.76 11.31L32.76 11.31L32.76 11.31Q32.96 11.31 33.25 10.98L33.25 10.98L33.25 10.98Q33.54 10.64 33.71 10.16L33.71 10.16L35.15 11.19L35.15 11.19Q34.78 11.89 34.00 12.40L34.00 12.40L34.00 12.40Q33.22 12.92 32.75 12.92L32.75 12.92L32.75 12.92Q32.27 12.92 31.37 12.18L31.37 12.18L31.37 12.18Q30.46 11.44 30.27 11.02L30.27 11.02L30.27 11.02Q30.07 10.61 30.07 8.98L30.07 8.98L30.07 8.98Q30.07 7.35 30.27 6.94L30.27 6.94L30.27 6.94Q30.46 6.52 31.37 5.78L31.37 5.78L31.37 5.78Q32.27 5.04 32.69 5.04L32.69 5.04L32.69 5.04Q33.11 5.04 34.01 5.78L34.01 5.78L34.01 5.78Q34.92 6.52 35.11 6.94L35.11 6.94L35.11 6.94Q35.31 7.35 35.31 8.96ZM33.37 7.20L33.37 7.20L33.37 7.20Q33.26 7.01 33.05 6.83L33.05 6.83L33.05 6.83Q32.83 6.65 32.64 6.65L32.64 6.65L32.64 6.65Q32.45 6.65 32.21 7.02L32.21 7.02L32.21 7.02Q31.98 7.39 31.92 8.13L31.92 8.13L33.52 8.13L33.52 8.13Q33.47 7.39 33.37 7.20ZM38.63 7.38L38.63 12.75L36.78 12.75L36.78 7.92L36.78 7.92Q36.78 7.21 36.60 6.81L36.60 6.81L36.60 6.81Q36.43 6.41 36.08 6.12L36.08 6.12L37.62 5.04L37.62 5.04Q38.12 5.46 38.39 6.02L38.39 6.02L38.39 6.02Q39.42 5.04 39.84 5.04L39.84 5.04L39.84 5.04Q40.12 5.04 40.70 5.56L40.70 5.56L40.70 5.56Q41.27 6.08 41.37 6.69L41.37 6.69L39.87 7.77L39.87 7.77Q39.86 7.43 39.71 7.11L39.71 7.11L39.71 7.11Q39.56 6.79 39.45 6.79L39.45 6.79L39.45 6.79Q39.21 6.79 38.63 7.38L38.63 7.38ZM47.11 7.31L47.11 7.31L47.11 8.51L47.11 8.51Q47.11 10.19 46.93 10.60L46.93 10.60L46.93 10.60Q46.75 11.00 45.80 11.96L45.80 11.96L45.80 11.96Q44.86 12.92 44.41 12.92L44.41 12.92L44.41 12.92Q43.96 12.92 43.01 11.96L43.01 11.96L43.01 11.96Q42.06 11.00 41.88 10.58L41.88 10.58L41.88 10.58Q41.71 10.16 41.71 8.51L41.71 8.51L41.71 5.21L43.55 5.21L43.55 8.51L43.55 8.51Q43.55 9.98 43.66 10.24L43.66 10.24L43.66 10.24Q43.76 10.50 44.01 10.77L44.01 10.77L44.01 10.77Q44.25 11.03 44.41 11.03L44.41 11.03L44.41 11.03Q44.56 11.03 44.81 10.77L44.81 10.77L44.81 10.77Q45.05 10.50 45.16 10.24L45.16 10.24L45.16 10.24Q45.26 9.98 45.26 8.51L45.26 8.51L45.26 7.91L45.26 7.91Q45.26 7.20 45.09 6.80L45.09 6.80L45.09 6.80Q44.93 6.41 44.56 6.12L44.56 6.12L46.10 5.04L46.10 5.04Q47.11 5.84 47.11 7.31ZM53.24 8.96L53.24 8.96L53.24 9.46L49.85 9.46L49.85 9.46Q49.85 10.30 50.06 10.79L50.06 10.79L50.06 10.79Q50.13 10.96 50.32 11.14L50.32 11.14L50.32 11.14Q50.50 11.31 50.69 11.31L50.69 11.31L50.69 11.31Q50.89 11.31 51.18 10.98L51.18 10.98L51.18 10.98Q51.48 10.64 51.65 10.16L51.65 10.16L53.09 11.19L53.09 11.19Q52.71 11.89 51.93 12.40L51.93 12.40L51.93 12.40Q51.16 12.92 50.68 12.92L50.68 12.92L50.68 12.92Q50.20 12.92 49.30 12.18L49.30 12.18L49.30 12.18Q48.40 11.44 48.20 11.02L48.20 11.02L48.20 11.02Q48.01 10.61 48.01 8.98L48.01 8.98L48.01 8.98Q48.01 7.35 48.20 6.94L48.20 6.94L48.20 6.94Q48.40 6.52 49.30 5.78L49.30 5.78L49.30 5.78Q50.20 5.04 50.62 5.04L50.62 5.04L50.62 5.04Q51.04 5.04 51.95 5.78L51.95 5.78L51.95 5.78Q52.85 6.52 53.05 6.94L53.05 6.94L53.05 6.94Q53.24 7.35 53.24 8.96ZM51.30 7.20L51.30 7.20L51.30 7.20Q51.20 7.01 50.98 6.83L50.98 6.83L50.98 6.83Q50.76 6.65 50.58 6.65L50.58 6.65L50.58 6.65Q50.39 6.65 50.15 7.02L50.15 7.02L50.15 7.02Q49.91 7.39 49.85 8.13L49.85 8.13L51.45 8.13L51.45 8.13Q51.41 7.39 51.30 7.20Z"></path></g><defs data-v-fde0c5aa=""><!----></defs><g data-v-fde0c5aa="" id="89fa3fb8-f7f7-4842-a03f-32b6c68535f7" stroke="none" fill="#667EEA" transform="matrix(0.751896773490871,0,0,0.751896773490871,34.56769216442178,112.73142430319464)"><path d="M92.879 26.988a.255.255 0 0 0-.168-.122c-.371-.071-.687.248-1.006.554-.135.13-.274.265-.404.346-.188.15-.427.283-.679.424a8.007 8.007 0 0 0-.579.343c-.3.2-.597.463-.883.719a16.98 16.98 0 0 1-.62.532c-.19.162-.411.348-.633.476.035-.272.02-.584-.168-.774a.257.257 0 0 0-.238-.066 3.447 3.447 0 0 0-.619.252c-.132.063-.269.129-.393.178-.213.071-.408.142-.603.213-.194.071-.389.142-.614.217-.101.04-.213.081-.329.122-.3.107-.639.229-.921.398a3.71 3.71 0 0 0-.249.185c-.136.106-.275.215-.434.295a.242.242 0 0 0-.064.046l-.113.117c-.043.045-.093.098-.146.149.062-.27.106-.581-.06-.856a.25.25 0 0 0-.214-.121c-.293 0-.579.164-.856.322-.127.072-.252.145-.389.2-.14.07-.299.141-.457.211-.16.071-.32.143-.462.214-.758.378-1.304.872-1.841 1.402a5.654 5.654 0 0 0-1.348-2.493c-.32-.348-.709-.62-1.085-.882-.333-.233-.648-.453-.916-.72-.334-.335-.75-.752-1.26-1.043-.324-.162-.633-.413-.933-.656a8.944 8.944 0 0 0-.513-.397c-1.088-.653-2.264-.52-3.402-.392-.334.038-.666.075-.978.09-.505 0-.965-.147-1.453-.304-.241-.077-.487-.156-.763-.224-.751-.136-1.506-.136-2.236-.136-1.057 0-2.101.263-2.802.71-.16.115-.346.221-.532.328-.361.208-.735.422-.979.716-.255.317-.578.575-.912.843-.022.023-.05.041-.073.063-.006-.009-.003-.021-.01-.03-.146-.175-.218-.799-.224-1.215a3.844 3.844 0 0 1-.021-.328c-.037-.751-.105-2.15-1.086-3.508-.881-1.218-2.238-2.391-3.59-2.436-.014-.003-.021-.018-.036-.019a14.43 14.43 0 0 1-1.212-.182c-.939-.169-1.91-.342-2.941-.048-1.587.463-3.048 1.46-4.114 2.811l-.137.176c-.417.532-.777.991-1.026 1.678-.273.681-.476 1.359-.668 2.004-.552 1.586-.944 4.879-.877 6.463 0 .004.004.006.004.01.023 1.466.189 3.288 1.015 5.074.008.018.025.027.037.042-.202.426-.255.893-.305 1.346-.016.145-.031.291-.051.431a45.215 45.215 0 0 0-.219 1.533 42.577 42.577 0 0 1-.221 1.546l-.014.186a.25.25 0 0 0-.133.107c-.231.429-.544.791-.875 1.175-.335.388-.681.789-.938 1.266a17.18 17.18 0 0 0-.484.97c-.583-.249-2.321-1.099-3.05-2.699-.737-1.617-2.447-3.432-4.28-4.683.883-1.738 1.418-4.223.107-5.753.162-.349.296-.722.327-1.161.06-.761-.004-1.653-.055-2.373-.107-1.35-.584-2.884-1.307-4.209-.652-1.205-1.477-2.546-2.997-3.215-.155-.078-.298-.159-.436-.236-.466-.263-.907-.512-1.564-.512-.443 0-.732.1-.908.314-.269.329-.172.813-.059 1.373.067.338.142.67.215.999.148.664.285 1.306.367 1.964-.626-.232-1.165-.217-1.594.077-.721.496-.985 1.656-1.053 2.863a1.64 1.64 0 0 0-.556-.379c-.59-.237-1.321-.161-1.899.195l-.235.135c-.785.447-1.925 1.107-2.11 2.022-.037-.015-.076-.042-.113-.055-.803-.246-1.492.232-2.049.616-.141.097-.277.191-.381.256-.817.35-1.744.83-2.432 1.748-.45.644-.697 1.379-.774 2.315-.029.351.001.746.032 1.127.027.34.036.672.02.98l-.233-.212a.25.25 0 0 0-.414.228c.088.498.11 1.012.131 1.509.026.617.054 1.255.203 1.891l.011.044c-.279-.127-.595-.273-.998-.214a.251.251 0 0 0-.208.189c-.259 1.087.708 1.97 1.561 2.75.378.345.734.671.933.969.98 2.066 3.459 4.133 5.768 4.169-.188.233-.366.476-.567.695-.073.073-.177.166-.295.273-.76.686-1.381 1.297-1.272 1.841.092.46.692 1.023 1.903 1.781.752.405 1.712.596 2.724.595 1.943 0 4.077-.699 5.295-1.917 1.71-1.756 1.908-4.088 2.1-6.344.052-.614.106-1.248.19-1.851v-.006c1.095-.483 1.732-1.77 1.929-2.955 1.579 1.184 2.695 2.735 3.25 3.951.822 1.804 3.042 2.948 3.744 3.273-.494 1.3-.857 2.71-1.028 4.074-.114.949-.208 1.934-.185 2.935-.025.012-.055.011-.075.031-.451.451-.56.994-.666 1.523l-.037.211c-.616 3.624-1.505 4.486-2.142 4.571-.547.078-1.446-.206-2.489-.528-2.075-.644-4.917-1.525-7.912-.658-.679.195-2.278 1.157-3.688 2.006-.798.479-1.616.971-1.869 1.071-.026-.016-.052-.041-.077-.053-.394-.287-.866-.287-1.283-.287h-1.435c-.921 0-1.745.265-2.36.494-.123.047-.246.101-.369.154-.116.051-.232.102-.329.139a5.06 5.06 0 0 0-.623.217c-.305.123-.609.245-.926.402-.512.29-.945.605-1.343.976a6.24 6.24 0 0 1-.509.332l-.211.13c-.449.256-.803.55-1.123.935-.064.085-.136.166-.208.248-.133.15-.271.307-.368.48-.182.275-.279.568-.364.827l-.018.058a5.51 5.51 0 0 0-.346 1.39c-.014.179-.048.363-.083.553a6.007 6.007 0 0 0-.097.666c-.031.276.017.631.136.985.031.079.063.15.095.222l.108.242c.014.021.023.052.036.082.041.105.092.237.214.317.015.01.033.008.049.015-.066.341-.105.789.023 1.203.14.664.537 1.135.905 1.53.584.584 1.116.947 1.634 1.112.193.056.38.049.545.042l.119-.006c.256.032.532.062.809.062.567 0 1.067-.032 1.538-.083.004 0 .007.004.011.004a.264.264 0 0 0 .028-.002c.016-.002.035-.009.051-.012.092-.011.192-.016.281-.028.224-.024.448-.035.67-.047.617-.03 1.254-.062 1.866-.368.23-.114.467-.215.705-.315.256-.109.513-.218.724-.328a.729.729 0 0 0 .205-.106l.068-.042c.036-.019.152-.019.234-.022a5.82 5.82 0 0 0 .522-.126c.155-.042.311-.085.465-.113.156-.028.312-.042.467-.057.173-.016.347-.032.528-.065.263-.058.472-.184.656-.295l.099-.06c.086-.048.169-.089.25-.129.171-.085.348-.173.543-.319.289-.258.542-.605.754-.908l.148-.207c.407-.565.828-1.15 1.103-1.812.257-.579.38-1.218.469-1.778l.024-.213c.058-.49.117-.998.036-1.474-.03-.447-.231-.844-.41-1.194l-.072-.143c-.207-.355-.448-.721-.911-.934a3.886 3.886 0 0 1-.188-.1c-.194-.107-.414-.228-.623-.274-.123-.04-.233-.062-.346-.087.938-.719 2.578-1.908 3.141-2.148 1.252-.628 2.673-.788 4.242-.475.476.06 1.832.583 2.823.965.622.239 1.159.446 1.424.522 1.476.423 2.931.195 4.166-.088.013.02.027.044.04.062.047.068.092.132.152.239.186.231.325.488.474.761.152.279.31.568.532.845.213.24.448.467.682.692.626.604 1.217 1.173 1.349 1.955.058.582.037 1.214.016 1.824-.014.424-.028.844-.018 1.247.02.775.203 1.309.559 1.631.305.276.665.33.957.33.108 0 .207-.008.29-.014.053-.004.1-.008.157-.009a1.04 1.04 0 0 0 .768-.393c.509-.641.325-1.859.203-2.666a15.27 15.27 0 0 1-.044-.303c-.129-1.548-.538-2.732-1.243-3.613-.309-.424-.678-.822-1.035-1.207-.578-.623-1.175-1.268-1.542-2.061-.403-.692-.24-1.448-.067-2.248a8.92 8.92 0 0 0 .169-1.057c.023.038.055.076.077.114.56.961 1.085 1.569 1.811 2.098.855.631 1.929 1.279 3.151 1.279.43 0 .878-.08 1.341-.27 1.096-.418 2.004-1.138 2.882-1.834a26.37 26.37 0 0 1 1.02-.783c.531-.414.957-.912 1.369-1.395l.249-.292c.198-.178.401-.35.604-.521.508-.43 1.033-.875 1.436-1.377.837-.902 1.572-2.838 1.661-4.253a11 11 0 0 1 .594.797c.15.24.37.631.503.934-.708.008-1.053.118-1.162.383-.078.19-.009.396.207.61.194.195.417.328.613.446.111.066.22.131.357.229.19.096.369.225.558.362.197.144.4.292.628.405.426.213.894.35 1.345.481.322.094.626.182.903.293.152.063.306.13.458.196.692.299 1.408.608 2.22.729.246 0 .475.019.694.037.452.037.862.035 1.292.101.231.035.471.071.733.071.778 0 1.514 0 2.242-.291.356-.119.623-.287.882-.449l.196-.123a4.088 4.088 0 0 1 1.287-.402c.68-.205 1.335-.485 2.025-.871.621-.436 1.03-1.071 1.391-1.632l.199-.307c.441-.589.868-1.312 1.147-1.94a6.99 6.99 0 0 0 .16-.467c.058-.181.111-.352.188-.508.049-.124.108-.237.165-.349.106-.207.217-.421.267-.674a.254.254 0 0 0-.065-.223.262.262 0 0 0-.221-.073c-.719.119-1.036.72-1.316 1.25a8.336 8.336 0 0 1-.161.294 2.521 2.521 0 0 1-.08-.541c-.041-.378-.175-.71-.304-1.032a16.298 16.298 0 0 1-.113-.288c-.079-.177-.266-.409-.479-.642.681-.339 1.454-.948 1.733-1.323.1-.116.219-.227.339-.339.228-.213.486-.455.666-.778.086-.173.209-.329.339-.494.138-.175.279-.356.382-.56.184-.324.372-.718.372-1.191 0-.05-.004-.112-.011-.182.265-.025.629-.051.986-.077.518-.037 1.007-.071 1.265-.107a1.02 1.02 0 0 0 .075-.018c.765-.188 1.305-.376 1.474-.719.105-.32-.081-.625-.217-.849-.034-.056-.081-.133-.105-.187.108-.024.35-.011.46-.004.073.004.139.008.189.008.309 0 .606-.074.911-.149.55-.138 1.108-.339 1.812-.652.654-.292 1.383-.73 1.924-1.068a3.23 3.23 0 0 0 .421-.267c.114-.082.228-.164.356-.228.035-.018.086-.034.141-.053.208-.071.442-.152.538-.343a.251.251 0 0 0-.048-.29c-.199-.198-.485-.335-.737-.456l-.149-.073c-.045-.035-.102-.066-.173-.106a1.433 1.433 0 0 1-.218-.139l.005-.005c.1-.099.253-.189.416-.284.138-.08.278-.163.385-.244.179-.107.341-.215.503-.323.157-.104.313-.209.526-.342.176-.158.36-.312.544-.465.566-.472 1.152-.96 1.488-1.577a6.24 6.24 0 0 0 .489-.981l.076-.109c.198-.279.471-.661.382-1.012a.251.251 0 0 0-.201-.186 2.894 2.894 0 0 0-.623-.016c-.11.005-.216.012-.317.007.058-.082.122-.169.168-.23.062-.085.12-.164.179-.254.063-.13.146-.243.228-.357.096-.133.19-.268.248-.388a13.73 13.73 0 0 0 1.296-2.236c.33-.724.704-1.543 1.006-2.372.031-.11.085-.253.146-.414.238-.625.533-1.414.259-1.896zm-33.92 1.788c.319-.254.681-.542.968-.899.184-.221.518-.413.841-.599.201-.115.401-.23.563-.347.722-.461 1.776-.625 2.521-.625.708 0 1.44 0 2.131.125.249.062.485.138.716.212.525.168 1.022.327 1.616.327h.001a15.96 15.96 0 0 0 1.022-.093c1.053-.12 2.146-.242 3.071.313.157.111.313.239.473.368.319.26.65.529 1.012.708.438.251.828.642 1.142.957.299.299.647.542.983.777.37.258.72.502 1.003.81.926 1.01 1.395 2.183 1.395 3.485.001 2.063-.505 4.149-1.503 6.198l-.067.141c-.715 1.544-1.92 3.008-2.5 3.619-.005-.03-.004-.053-.01-.085-.012-.038-.012-.089-.012-.148 0-.084 0-.189-.037-.304-.049-.143-.126-.247-.199-.346l-.068-.091c-.372-.689-.995-1.213-1.606-1.671a3.407 3.407 0 0 1-.647-.741c-.247-.37-.422-.451-.794-.501a3.907 3.907 0 0 0-.167-.037c-.13-.027-.401-.083-.504-.179a1.125 1.125 0 0 1-.192-.168c-.123-.127-.262-.271-.594-.271-.162 0-.202-.033-.336-.141a2.892 2.892 0 0 0-.233-.173c-.291-.174-.779-.331-1.09-.382a2.563 2.563 0 0 0-.545-.015c.413-.361.941-.679 1.508-.726.231-.033.447-.05.654-.067.237-.019.465-.038.701-.077l.081-.016c.609-.12 1.273-.282 1.444-.713.201-.599-.553-1.258-.856-1.402-.42-.337-.839-.337-1.283-.337-.056 0-.106.002-.153.005-.033.001-.077.004-.083.016a12.498 12.498 0 0 0-.021-.062c-.012-.041.007-.151.162-.446l.035-.067a.362.362 0 0 0 .022-.063c.095-.328.17-.586.015-.793-.141-.187-.389-.211-.613-.211-.524 0-.994.06-1.491.123l-.13.019c-.049 0-.099.003-.146.006-.042.003-.104.007-.111.024.003-.047.047-.165.071-.229.034-.09.063-.17.077-.247l.086-.146c.26-.441.555-.942.482-1.516-.042-.35-.163-.574-.368-.685-.205-.109-.455-.086-.734.054-.791.265-1.387.953-1.911 1.56l-.229.264a3.933 3.933 0 0 0-.24.29c-.131.165-.438.554-.633.714.018-.107.069-.252.104-.352.097-.272.197-.554.031-.768-.155-.2-.427-.177-.537-.165-.532.089-.943.375-1.255.626a9.792 9.792 0 0 0-2.177 2.977c-.082.189-.152.369-.221.542-.108.272-.209.528-.347.804-.038.096-.082.192-.125.287-.118.258-.222.503-.235.745l-.003.001a3.23 3.23 0 0 1-.31.114c-.116.039-.232.078-.328.121a1.692 1.692 0 0 0-.465.27c-.058.042-.114.085-.174.122-.343.196-.697.398-.988.643-.062.044-.113.087-.167.131-.025-1.146-.141-2.146-.534-3.098a24.436 24.436 0 0 0-.317-.83c-.329-.829-.639-1.613-.646-2.457.154-.432.252-.82.312-1.251 0-.08.007-.166.013-.253.01-.129.018-.279.007-.43.154-.417.58-.76 1.034-1.121.229-.182.466-.37.678-.583.302-.335.656-.58 1.031-.838.324-.228.658-.459.929-.733zm18.78 11.082c.396-.397.807-.78 1.217-1.164.414-.388.829-.775 1.22-1.167.716-.65 1.456-1.323 2.193-1.927.41-.374.854-.69 1.283-.997.326-.234.651-.466.962-.721.512-.408 1.108-.696 1.739-1 .158-.077.317-.153.426-.214.047-.012.114-.035.192-.062-.108.1-.218.198-.329.296-.304.271-.619.552-.911.886-.224.256-.489.505-.746.747-.266.249-.54.506-.77.77a4.66 4.66 0 0 0-.385.454c-.11.142-.221.284-.325.391l-1.005.803c-.235.203-.455.422-.675.641-.212.212-.425.425-.65.619-.195.163-.407.325-.618.488-.22.169-.44.338-.626.495-.612.428-1.314.823-2.112 1.187-.128.078-.269.143-.404.207.115-.241.206-.483.308-.725.005-.004.011-.002.016-.007zm-7.6 11.23c-.569 0-1.018.118-1.452.232-.868.229-1.769.467-3.842-.22-3.319-1.098-4.393-2.571-4.797-3.126l-.017-.021c-.032-.043-.063-.089-.098-.13l-.016-.02c-.002-.002-.005-.001-.007-.003-.295-.337-.65-.601-1.001-.859-.199-.147-.402-.296-.591-.456a7.577 7.577 0 0 1-.604-.645c-.519-.6-1.008-1.167-2.146-1.167h-.104a.896.896 0 0 1 .161-.214c.191-.12.369-.19.527-.208.539-.053.999.049 1.239.271.046.046.086.102.127.158.091.123.193.263.35.36.148.099.372.17.652.209.086.017.177.025.269.026.011.007.014.021.026.027.126.054.242.099.353.141.341.131.588.225.858.495.202.243.482.416.754.582.248.152.481.295.631.475.013.015.034.012.05.023a.884.884 0 0 0 .266.244c.073.049.161.089.254.119.152.179.356.367.561.551.207.187.421.379.559.556.277.414.563.842.925 1.203l.075.077c.132.138.315.33.562.33a.566.566 0 0 0 .252-.064c.384-.128.384-.506.381-.772-.03-.18-.073-.336-.112-.483-.053-.191-.098-.356-.098-.533 0-.136.009-.209.017-.249a.513.513 0 0 1 .088.033c.22.146.406.344.586.535.144.151.291.308.473.452.174.116.636.42.946.16.3-.25.224-.905-.224-1.951-.068-.275-.116-.535.048-.605a.323.323 0 0 1 .131-.039c.11-.018.403-.064.403-.452 0-.342-.3-.622-.51-.727-.182-.072-.39-.095-.592-.118-.217-.024-.44-.05-.521-.109-.062-.062.19-.354.286-.465.059-.069.115-.135.168-.206l.142-.205c.27-.384.604-.862.604-1.414 0-.302-.02-.608-.254-.744-.221-.129-.481-.012-.699.112a7.772 7.772 0 0 0-.616.472c-.188.154-.377.309-.536.421-.244.098-.51.112-.809.116.061-.106.128-.202.178-.319.114-.288.114-.561.113-.87-.037-.445-.182-.894-.435-1.379l.335-.157c.344-.161.699-.326.817-.401.06-.025.152-.02.253-.015.165.008.376.02.579-.102.076-.046.158-.105.243-.167.183-.133.372-.271.566-.299.283-.047.609-.093.913-.05.285.047.702.192.899.31.075.051.134.098.186.14.16.129.312.252.65.252.119 0 .137.018.234.119.065.068.146.152.236.206.17.17.474.233.718.284.055.011.104.021.172.037.29.041.321.06.475.289.233.35.5.653.757.859.572.429 1.147.909 1.485 1.534.032.047.063.09.095.131.06.081.104.139.126.206.012.036.012.087.012.146 0 .085 0 .19.028.268.025.151.037.303.05.461.012.151.024.309.049.484.032.188.086.381.142.577.12.421.233.819.12 1.189-.109.301-.31.56-.521.833a5.757 5.757 0 0 0-.413.584c-.295.566-1.693 2.675-3.14 2.675zm-4.261 1.183c.292.316.594.644 1.006.797.469.134.858.262 1.27.603l.066.044c.13.085.433.282.463.372.037.15-.098.295-.241.332-.334.082-.862-.148-1.52-.687-.011-.005-1.019-.471-1.479-.187a.464.464 0 0 0-.221.41c0 .425.384.65.722.85.224.132.477.28.477.42 0 .17-.071.24-.124.279-.168.119-.474.113-.694.041-.192-.049-.29-.127-.494-.4a.249.249 0 0 0-.062-.059c-.051-.034-.135-.147-.201-.238-.158-.215-.321-.438-.571-.438a.246.246 0 0 0-.196.096.254.254 0 0 0-.047.214c.044.178.068.517-.117.656-.158.115-.316.111-.61-.034-.358-.134-.401-.303-.494-.674-.018-.069-.036-.142-.064-.24-.335-.857-.925-1.559-1.495-2.237a16.044 16.044 0 0 1-.833-1.053c.014-.203.041-.405.074-.612.008-.051.013-.105.021-.157.132.098.251.221.368.366.084.104.167.207.257.296l.846.845c.095.096.243.314.387.526.267.394.542.801.82.968a.299.299 0 0 0 .13.026.28.28 0 0 0 .102-.018c.145-.058.198-.203.261-.371.02-.053.054-.146.086-.208.02.02.04.043.063.068.166.177.474.504.835.324a.487.487 0 0 0 .253-.289c.086-.259-.04-.553-.164-.788-.21-.28-.405-.52-.597-.738.178.065.338.135.53.198.24.079.461.143.674.2.17.128.336.307.513.497zm-2.861-1.368c.014.023.015.052.036.071.426.364.827.808 1.278 1.404.144.282.114.364.12.366-.059-.007-.197-.154-.256-.218-.082-.088-.152-.163-.218-.193a.412.412 0 0 0-.363-.047c-.202.07-.3.278-.373.469a7.93 7.93 0 0 1-.459-.633c-.171-.252-.318-.47-.446-.599l-.847-.846c-.077-.078-.148-.167-.222-.257-.18-.223-.389-.468-.696-.604a3.16 3.16 0 0 0-.01-.503c.525.488 1.313 1.052 2.456 1.59zm-6.152-.342c.158.132.308.257.426.442.039.044.105.17.15.286l-.054-.035c-.167-.105-.337-.222-.492-.177a.403.403 0 0 0-.328.215c-.161.312.074.849.507 1.611.034.06.06.104.082.146.147.245.214.393.214.618 0 .06.003.118.005.174.004.076.009.191.008.209 0 0-.027.015-.112.015-.379 0-.568 0-.847-.198l-.06-.045c-.227-.174-.592-.439-.911-.282-.095-.113-.185-.231-.276-.347.047.007.096.018.139.018a.517.517 0 0 0 .272-.066c.64-.319.243-1.119.126-1.349-.125-.378-.336-.569-.559-.747-.178-.176-.227-.266-.227-.419 0-.031 0-.069.002-.099a.6.6 0 0 1 .128.078c.105.076.239.166.369.166.179.037.318.007.426-.082.154-.126.172-.324.169-.502-.083-.51-.51-.683-.62-.726-.341-.196-.644-.449-.922-.681-.405-.304-.697-.67-.855-1.056-.035-.145-.021-.341-.007-.549a2.712 2.712 0 0 0-.018-.631c.057-.027.121-.049.186-.07.024.095.06.201.156.332.099.147.201.299.312.408.247.248.554.465.874.622.226.17.494.277.797.393.112.023.217.028.314.033.126.006.201.011.271.046.133.066.311.288.311.422-.007.043-.119.154-.18.214-.111.11-.237.235-.302.396-.225.588.209.951.526 1.217zm-3.844-3.434c.029-.065.068-.121.107-.177-.003.064-.004.128-.009.193-.018.238-.035.485.031.739.2.498.557.948 1.02 1.294.282.236.604.505 1.013.737.221.09.317.19.342.317l-.002.054-.046-.005a.57.57 0 0 1-.129-.078c-.107-.077-.24-.171-.42-.171-.5 0-.5.42-.5.6 0 .335.144.545.395.792.23.186.34.3.43.563.306.615.16.688.096.721-.102.047-.503-.143-.604-.312-.043-.072-.116-.102-.193-.108a18.57 18.57 0 0 1-.521-.975c-.133-.265-.266-.53-.404-.784-.431-.811-1.042-2.441-.606-3.4zm.985-2.16c-.21.207-.31.536-.32 1.02-.16.049-.306.113-.438.19-.003.001-.007-.002-.01 0-.009.003-.011.013-.019.017a1.587 1.587 0 0 0-.372.307c-.585.271-1.108.793-1.467 1.512-.238.474-.224.931-.209 1.416.003.116.007.235.007.358 0 .613 0 1.246.09 1.787.044.308.11.615.176.923.065.304.131.607.173.899.038.422.126.86.21 1.284.111.56.227 1.138.227 1.667 0 .392 0 .983-.354 1.163-.182.058-.807-.001-1.14-.082l-.171-.067c-.388-.151-.789-.309-1.057-.577-.153-.153-.272-.353-.399-.563-.137-.229-.279-.465-.476-.661l-.294-.293c-.848-.842-1.649-1.636-2.094-2.671a12.1 12.1 0 0 1-.438-1.662c-.17-.509-.345-1.035-.434-1.474-.226-.83-.341-1.809-.341-2.909 0-.323-.01-.646-.02-.969-.019-.624-.039-1.268.019-1.896.059-.7.425-1.389.78-2.055.149-.28.297-.559.419-.829l.174-.351c.438-.885.852-1.721 1.459-2.404.349-.437.334-.873.322-1.258-.002-.07-.005-.14-.005-.21 0-.508 0-.718.204-1.063l.252-.301c1.329-1.586 2.702-3.227 4.63-3.459.142 0 .31-.009.487-.018.359-.02.768-.041 1.008.005.204.067.228.233.193.697-.007.101-.014.199-.011.254-.076.537-.224 1.026-.492 1.656-.269.446-.536.984-.8 1.513l-.113.246c-.427.929-.959 2.085-.959 3.182a8.3 8.3 0 0 1-.007.311c-.015.461-.031.984.198 1.443.086.216.232.398.373.575.16.2.311.389.311.558a.25.25 0 0 0 .5 0c0-.344-.223-.623-.42-.87-.124-.155-.24-.301-.308-.467-.182-.365-.168-.801-.154-1.223.003-.112.007-.221.007-.327 0-.987.507-2.088.914-2.973l.109-.24c.204-.411.417-.824.633-1.211.128.607.35 1.189.574 1.756.107.269.215.539.315.824.406.984.501 2.025.508 3.263a8.272 8.272 0 0 0-.726.452c-.109.055-.23.129-.405.369a.25.25 0 1 0 .403.296c.12-.163.176-.191.229-.218a.416.416 0 0 0 .125-.081c.143-.095.284-.19.453-.287.056-.034.117-.067.18-.101l.108-.062c.024-.014.051-.019.07-.04l.048-.028c.092-.065.171-.131.25-.196.068-.056.136-.113.23-.181.272-.228.607-.419.949-.615.07-.044.138-.094.206-.144.111-.083.217-.161.347-.206.103-.045.205-.079.307-.113.118-.04.236-.079.36-.129.197-.049.421-.104.573-.208.141-.077.279-.161.418-.244.34-.204.66-.396.992-.491.407-.106 1-.108 1.354.1.224.121.476.399.58.65.028.057.028.104.024.207l-.002.096c0 .339.16.617.315.886.035.061.07.122.11.196.338.56.513 1.037.551 1.482 0 .25 0 .466-.077.659-.087.206-.207.396-.335.599-.072.114-.146.23-.216.355-.21.375-.446.815-.599 1.273-.102.249-.141.504-.178.751-.03.204-.06.396-.122.582-.019.056-.04.114-.063.175-.038.104-.079.213-.094.28a.558.558 0 0 0-.048.139c-.055.03-.172.003-.283-.071-.233-.139-.268-.422-.294-.834 0-.261-.07-.523-.196-.711-.202-.271-.386-.454-.566-.568-.516-.367-1.255-.314-1.491-.286a.763.763 0 0 0-.444.264c-.073.074-.151.1-.396.052-.21-.03-.377-.078-.465-.136-.081-.051-.147-.141-.218-.237a1.82 1.82 0 0 0-.184-.222c-.505-.471-1.313-.444-1.64-.408-.235.026-.484.121-.763.298-.159.127-.253.282-.354.46-.04.104-.043.105-.084.13-.014.008-.015.025-.026.036-.349.013-.645.071-.863.287zm-8.428 10.081c.229.201.448.411.668.621.448.429.912.873 1.464 1.241.282.176.819.429 1.411.651-.096.462-.431 1.042-.795 1.346-.079.062-.148.096-.185.087-.097-.018-.232-.244-.332-.41-.152-.254-.31-.518-.534-.61-.478-.298-.963-.02-1.353.203-.2.115-.408.233-.542.252-.058 0-.122.003-.188.006-.122.005-.403.018-.476-.067-.038-.055-.069-.276-.086-.396a1.81 1.81 0 0 0-.058-.307 7.993 7.993 0 0 1-.038-.741c-.009-.386-.018-.784-.119-1.228-.124-.31-.343-.823-.997-.713-.09.022-.188.058-.29.095-.201.074-.409.151-.566.119-.042-.013-.104-.043-.156-.154-.199-.424 0-1.429.173-1.831.252-.568.699-1.205 1.172-1.514.304 1.251.755 2.516 1.827 3.35zm1.567-20.711l-.004-.306c-.021-.946-.042-1.923.265-2.846.131-.458.229-.572.487-.612.151 0 .293 0 .391.09a.416.416 0 0 1 .072.099c.056.091.15.244.337.247h.006c.181 0 .3-.143.394-.283.25-.373.215-.963.188-1.438-.007-.129-.015-.25-.015-.354 0-.699 0-1.303.422-1.845.174-.261.409-.457.55-.457.015-.009.077-.002.176.151.249.29.443.638.649 1.005.104.186.209.372.328.565.191.318.591.978 1.24.606.366-.182.708-.656 1.039-1.435.209-.419.365-.534.388-.543.001 0 .018.009.054.059.093.116.119.276.148.462.035.22.075.469.235.71.154.233.345.298.478.311.257.029.537-.111.796-.374a.985.985 0 0 0 .153-.132c.007.056-.001.153-.006.211a2.208 2.208 0 0 0-.009.176c0 .196-.049.434-.102.685-.105.511-.21 1.083.03 1.582-.298.24-.583.491-.792.783a.866.866 0 0 0-.091-.075c0-.084.051-.187.1-.286.062-.126.126-.257.126-.407 0-.042.003-.096.006-.155.018-.348.035-.707-.217-.827-.09-.044-.234-.062-.41.083-.093.058-.144.145-.183.209-.015.025-.039.066-.068.076-.065 0-.085 0-.15-.187-.015-.088-.018-.189-.021-.287-.01-.269-.021-.546-.259-.631-.239-.085-.451.15-.563.279-.078.104-.151.217-.225.33-.325.502-.535.78-1.023.661-.113-.027-.266-.195-.4-.344-.229-.252-.49-.541-.884-.467-.594.223-.468.838-.401 1.168.02.096.04.185.04.255 0 .055-.005.07-.046.095a1.319 1.319 0 0 1-.354.037c-.621.09-.604.681-.594 1.034l.003.157c0 .059.028.107.062.15-.914.622-1.683 1.37-2.241 1.912a4.86 4.86 0 0 1-.105.103zm2.78-2.289l-.001-.043c-.013-.458.033-.506.13-.522.389 0 .54-.076.604-.125.26-.149.26-.405.26-.504 0-.098-.023-.222-.05-.355-.086-.424-.069-.542.041-.588.081-.011.27.196.384.322.191.212.391.431.652.494.861.213 1.249-.391 1.562-.875.044-.067.087-.135.129-.196.004.107.011.222.036.354.066.197.189.565.634.565a.505.505 0 0 0 .383-.16l-.004.095a3.375 3.375 0 0 0-.007.18.714.714 0 0 1-.075.186c-.05.102-.099.229-.125.367a6.983 6.983 0 0 0-.927-.004l-.085.003c-1.281-.239-2.491.175-3.541.806zm13.278 2.563a.383.383 0 0 0 .307.222c.34.035.695-.379 1.161-.969.088-.111.159-.203.212-.256l.244-.28c.483-.558 1.03-1.191 1.724-1.425.171-.084.272-.093.307-.075.036.019.086.11.109.306.052.406-.177.792-.417 1.2l-.114.196a.226.226 0 0 0-.033.116 1.17 1.17 0 0 1-.053.16c-.072.193-.154.412-.076.561.116.352.457.329.618.318.037-.002.074-.005.144-.007l.162-.021c.502-.063.936-.119 1.428-.119.125 0 .185.012.203.007-.001.068-.046.226-.074.336l-.03.058c-.108.207-.291.552-.199.819.107.429.42.414.608.405.038-.002.081-.004.128-.004.399 0 .688 0 1.016.256.255.127.726.599.654.812-.036.091-.251.233-1.07.394l-.076.015c-.214.036-.428.052-.65.07-.217.018-.442.036-.67.069-.972.08-1.844.784-2.336 1.415l-.001.002a3.182 3.182 0 0 0-.42.259c-.073.053-.142.104-.207.143-.067.04-.155.039-.296.031-.142-.007-.301-.016-.5.068-.132.079-.506.254-.807.395-.135.063-.26.121-.366.172-.017-.03-.033-.061-.051-.09a2.999 2.999 0 0 1-.18-.358c.097-.039.197-.073.289-.119.133-.066.258-.129.425-.177.084-.042.226-.061.363-.08.238-.032.509-.069.661-.226.18-.134.233-.308.269-.424.041-.132.045-.143.227-.173.151-.05.435.02.718-.076.674-.269 1.003-.667.928-1.127-.022-.113-.064-.252-.188-.333a.336.336 0 0 0-.146-.052l.003-.006c.025-.08.055-.17.047-.204.065-.259.104-.544-.099-.696-.226-.172-.51-.005-.834.187-.197.115-.516.311-.667.275-.092-.021-.048-.44-.027-.643.038-.374.078-.76-.12-1.002a.517.517 0 0 0-.35-.189c-.483-.1-.71.397-.842.692a2.13 2.13 0 0 1-.058.128c-.208.349-.405.678-.666.939a1.566 1.566 0 0 1-.206.179c-.015-.05-.029-.114-.04-.163-.051-.23-.114-.517-.356-.643-.147-.076-.319-.074-.513.007-.389.157-.569.547-.7.833l-.071.151c-.036.09-.078.175-.118.259-.114.236-.22.488-.239.807-.12.015-.239.034-.345.062-.4.114-.765.333-1.117.544-.124.075-.252.15-.394.23.039-.11.089-.229.144-.348.046-.102.094-.205.126-.289.135-.269.242-.538.355-.825.066-.169.136-.344.212-.521a9.236 9.236 0 0 1 2.046-2.801c.379-.304.682-.457.993-.51a.642.642 0 0 1 .057-.003c-.015.074-.056.189-.085.272-.103.28-.216.596-.081.864zm2.277 2.457c.335.083.705-.137 1.035-.331.063-.038.144-.084.214-.123a2.693 2.693 0 0 1-.027.139c-.001.019-.019.074-.03.111-.044.134-.104.318-.015.496a.25.25 0 0 0 .047.065.4.4 0 0 0 .286.115c-.004.264-.474.473-.611.529-.15.051-.482-.007-.66.061-.451.064-.537.343-.589.51-.03.1-.045.137-.117.195-.061.061-.25.086-.402.107-.178.024-.362.049-.468.109-.169.042-.325.12-.477.195-.048.024-.089.035-.135.057a.669.669 0 0 0-.067-.279 1.944 1.944 0 0 0-.788-.876c-.252-.148-.566-.217-.883-.232.023-.199.093-.375.185-.566.045-.093.091-.188.123-.271l.069-.147c.107-.232.229-.496.437-.58.059-.024.09-.026.09-.028.041.034.081.213.102.309.05.223.111.5.364.574.257.079.511-.131.724-.344.305-.305.527-.677.751-1.053.025-.05.05-.106.076-.166.076-.169.2-.415.348-.391.066.082.03.428.01.635-.049.449-.112 1.065.408 1.18zm.123 8.486c.216.164.51.197.793.229.17.02.345.039.443.077.075.038.171.14.202.234a.594.594 0 0 0-.252.087c-.54.213-.38.857-.303 1.167.003.013.018.068.023.081.301.697.418 1.258.395 1.351.001.001-.097.01-.36-.165a3.976 3.976 0 0 1-.403-.392c-.199-.212-.405-.431-.7-.624-.161-.08-.401-.174-.611-.046-.225.139-.243.431-.243.694 0 .243.056.448.115.664.035.132.074.272.098.393 0 .188-.01.246-.074.271-.068.034-.08.041-.263-.15l-.083-.086c-.327-.326-.587-.715-.897-1.177-.153-.192-.383-.398-.604-.599-.101-.09-.202-.182-.295-.271a.557.557 0 0 0 .168-.238l.028-.071.161.138c.285.25.556.488.815.488.04 0 .081-.006.121-.018.1-.032.231-.116.286-.339.057-.224.015-.459-.023-.667-.02-.108-.04-.213-.04-.31l.002-.117a1.37 1.37 0 0 0 .304-.064c.429-.108.413-.421.403-.609a2.461 2.461 0 0 1-.004-.128c0-.08.053-.207.1-.319.082-.197.167-.402.101-.605-.173-.51-.81-.381-1.232-.296-.021.004-.034.004-.055.009.033-.061.066-.129.099-.187.041-.071.083-.137.125-.205.019.004.031.021.051.021.442 0 .823 0 1.266-.183.219-.146.42-.31.621-.475.188-.153.374-.307.562-.433.083-.048.139-.071.173-.083.009.046.018.131.018.289 0 .394-.273.783-.514 1.126l-.141.203a2.782 2.782 0 0 1-.139.167c-.246.282-.654.756-.237 1.168zm-2.352-.397c.054-.162.126-.317.196-.472.122-.002.268-.03.424-.062.415-.084.639-.097.656-.042.005.044-.052.18-.086.262-.064.155-.138.331-.138.511 0 .056.003.107.005.154.002.034.004.078.017.083l-.062.021c-.104.035-.179.042-.245.049-.39.04-.42.278-.42.611 0 .124.023.26.048.399.025.136.051.276.037.402a3.584 3.584 0 0 1-.414-.33 4.782 4.782 0 0 0-.316-.258l.004-.01c.076-.226.109-.45.143-.666.034-.227.066-.443.151-.652zm-2.035 1.05c-.058-.037-.114-.077-.173-.112-.248-.152-.481-.295-.646-.492-.337-.338-.639-.467-.977-.597a.314.314 0 0 1 .105-.07c.334-.039.826-.011 1.134.207.137.086.282.234.437.441.063.095.104.261.105.449l.015.174zM44.623 25.544c.226-.62.546-1.029.953-1.548l.137-.176c1.001-1.268 2.373-2.205 3.859-2.638.919-.263 1.791-.106 2.714.06l.088.013a49.65 49.65 0 0 1-2.324 1.15c-.699.331-1.422.673-2.135 1.045-1.849 1.084-3.263 2.769-4.212 5.016.082-.348.167-.675.26-.941.193-.647.392-1.313.66-1.981zm-1.513 7.887c0-.696.138-1.269.297-1.933l.089-.38c.13-.391.229-.812.325-1.218.104-.445.203-.866.333-1.222.901-2.149 2.252-3.763 4.004-4.791a58.35 58.35 0 0 1 2.107-1.03c.826-.39 1.68-.794 2.476-1.229 1.827-.95 3.844 1.741 4.067 2.05.894 1.238.957 2.54.991 3.24.008.149.014.273.023.336.002.186.025 1.13.339 1.504.008.01.022.008.031.016-.144.108-.293.211-.447.318-.383.264-.779.537-1.11.906-.115.115-.26.227-.396.338-.101-.333-.025-.742.058-1.145.057-.277.111-.539.111-.786 0-.043.004-.09.008-.137.015-.191.035-.454-.122-.608-.038-.05-.153-.202-.337-.212-.192-.004-.285.108-.365.193-.035.037-.068.072-.139.125-.194.194-.341.262-.418.262-.022-.001-.055.011-.123-.091-.1-.15-.128-.327-.157-.513-.036-.224-.076-.477-.244-.685-.162-.227-.338-.265-.478-.253-.282.022-.547.29-.816.83-.373.877-.666 1.126-.82 1.204-.178.102-.29.054-.589-.444-.107-.172-.207-.351-.308-.53-.209-.373-.425-.759-.684-1.057-.181-.29-.408-.353-.568-.355h-.01c-.476 0-.859.519-.955.664-.517.663-.517 1.379-.517 2.138 0 .112.007.243.015.383.02.35.047.819-.072 1.073a.422.422 0 0 0-.111-.112c-.205-.205-.481-.201-.741-.202-.629.09-.8.511-.929.961-.331.995-.309 2.017-.287 3.005.005.239.01.476.01.711 0 .012.011.019.013.03l-.029.026c-1.011.827-1.639 1.828-2.261 2.9a3.184 3.184 0 0 1-.325.564l-.083.129c-.581-1.383-.856-2.929-.856-4.973zm.255 10.448c.088-.53.155-1.037.221-1.545.065-.498.13-.996.217-1.521.021-.151.038-.303.054-.454.048-.443.093-.862.281-1.238.078-.195.199-.377.327-.569.135-.204.275-.414.356-.623.582-.998 1.183-1.958 2.129-2.732.167-.136.385-.347.646-.601.754-.733 1.921-1.863 3.276-2.482-1.076.728-1.97 1.794-2.795 2.779l-.274.332c-.298.497-.298.819-.298 1.354 0 .076.002.151.005.227.012.342.021.636-.204.919-.644.724-1.072 1.589-1.525 2.504l-.177.357c-.123.269-.266.538-.41.809-.378.71-.77 1.446-.836 2.247-.06.656-.04 1.316-.021 1.955.01.318.02.636.02.954 0 1.144.121 2.167.354 3.024.091.453.271.994.436 1.479.1.598.298 1.255.454 1.72.491 1.144 1.325 1.972 2.209 2.848l.293.292c.154.153.274.354.401.565.082.137.17.272.267.404a6.268 6.268 0 0 1-.789-.392c-.508-.34-.937-.749-1.39-1.183-.225-.215-.449-.43-.695-.645-1.217-.946-1.551-2.514-1.874-4.029a27.937 27.937 0 0 0-.226-1.003c-.598-2.091-.564-4.292-.432-5.752zm-10.692-4.016a10.498 10.498 0 0 0-1.518-.8c.013-.884.482-1.734.949-2.558.223-.393.454-.798.623-1.19a17.608 17.608 0 0 1 .22-.419c.896 1.271.539 3.339-.274 4.967zm-7.196-12.045c.332-.228.793-.198 1.363.069.012.179.026.356.026.54l-.001 4.664c-.006 1.749-.009 3.541.487 5.214-.387-.455-.753-1.044-1.049-1.523-.131-.213-.253-.41-.364-.576-.619-.928-1.086-2.26-1.222-3.476-.103-.958-.353-4.147.76-4.912zm-3.779 2.835l.245-.14c.443-.272 1.016-.335 1.456-.159.36.144.608.438.722.849.01.576.05 1.128.099 1.583.144 1.291.643 2.708 1.303 3.699.108.162.227.354.355.562.507.819 1.134 1.824 1.844 2.256.091.204.19.406.301.605-.015.09-.086.24-.196.429-1.764-.771-3.138-2.46-4.03-3.686a32.26 32.26 0 0 1-.752-.948c-.391-.504-.795-1.025-1.265-1.536-.13-.117-.273-.252-.425-.396-.466-.441-1.015-.956-1.549-1.294.014-.752 1.142-1.396 1.892-1.824zm-7.61 6.511c.07-.844.289-1.501.682-2.063.612-.816 1.467-1.257 2.253-1.596.143-.085.289-.186.438-.289.516-.357 1.047-.725 1.613-.552.587.195 1.335.903 1.937 1.471.155.146.301.284.417.387.439.479.837.992 1.221 1.488.252.326.503.649.754.949.906 1.245 2.317 2.973 4.159 3.805-.062.095-.126.19-.193.29-.682.271-1.336.603-1.969.926-1.594.815-3.1 1.586-4.95 1.361-2.585-.346-4.506-2.015-6.343-3.688.086-.439.052-.946.014-1.441-.031-.38-.059-.738-.033-1.048zm-1.494 5.801c.182.017.351.093.539.179.118.053.236.107.36.148h.001c.156.571.357 1.177.602 1.814l-.065-.062c-.726-.663-1.475-1.348-1.437-2.079zm8.133 7.082c-2.172.182-4.734-1.913-5.663-3.904-.591-1.329-1.01-2.542-1.248-3.609-.139-.593-.164-1.18-.191-1.801a19.553 19.553 0 0 0-.051-.889c1.953 1.782 3.978 3.613 6.812 3.991 2.006.248 3.65-.598 5.242-1.412a37.33 37.33 0 0 1 1.186-.582l-.264.365c-.336.463-.627.864-.758 1.09-.468.768-1.073 1.513-1.658 2.234-.374.46-.76.936-1.104 1.41-.427.555-.825 1.132-1.21 1.69a44.81 44.81 0 0 1-1.028 1.438c-.024-.006-.042-.023-.065-.021zm9.82-5.042c.064-.673.059-1.24-.017-1.772-.011-.108-.029-.233-.048-.366-.062-.422-.143-.977-.009-1.33a8.946 8.946 0 0 1 1.469.811c-.109.97-.578 2.12-1.395 2.657zm5.561 1.404c-1.075-2.36-3.294-4.487-5.652-5.42a.245.245 0 0 0-.289.079c-.38.489-.264 1.288-.18 1.87.019.125.036.242.047.354.092.651.075 1.349-.056 2.263a34.817 34.817 0 0 0-.193 1.878c-.185 2.168-.375 4.41-1.958 6.035-1.685 1.685-5.434 2.306-7.412 1.242-1.419-.889-1.637-1.309-1.665-1.447-.062-.31.764-1.054 1.117-1.372.126-.113.236-.213.321-.299.769-.838 1.415-1.774 2.04-2.679.382-.553.776-1.125 1.2-1.675.34-.468.723-.938 1.092-1.394.596-.733 1.212-1.492 1.7-2.293.121-.208.405-.599.733-1.052.908-1.251 1.512-2.117 1.567-2.562l.001-.008c.002-.019.009-.042.009-.06 0-.023-.019-.039-.025-.06-.005-.021.003-.044-.008-.064a6.832 6.832 0 0 1-.337-.681l-.001-.002c-.806-1.845-.803-3.937-.796-5.969l.001-4.666c0-1.122-.223-2.118-.458-3.172a43.868 43.868 0 0 1-.213-.988c-.084-.418-.164-.812-.044-.958.07-.086.25-.131.521-.131.526 0 .875.197 1.318.448.145.082.295.167.47.253 1.251.551 1.987 1.557 2.77 3.001.691 1.266 1.146 2.728 1.248 4.008.05.701.112 1.573.055 2.298-.04.566-.272 1-.542 1.503-.07.131-.141.264-.216.414-.165.379-.378.756-.605 1.155-.525.925-1.067 1.881-1.026 2.955.004.095.064.158.144.197.022.02.034.049.063.061 2.381.943 5.104 3.435 6.07 5.556.803 1.763 2.642 2.671 3.298 2.949l-.187.412-.246.549c-.071.157-.131.326-.199.488-.67-.318-2.741-1.402-3.477-3.016zM7.732 72.828c.015-.209.053-.418.09-.622.038-.206.074-.408.089-.589.066-.498.16-.873.318-1.271l.023-.07c.079-.24.161-.488.316-.724.08-.143.194-.272.315-.409a4.15 4.15 0 0 0 .226-.27c.276-.331.578-.581.988-.816l.213-.13c.184-.112.375-.228.57-.376.389-.36.792-.654 1.257-.917.293-.145.586-.263.883-.382.199-.085.37-.143.588-.205.124-.047.249-.101.373-.155a6.63 6.63 0 0 1 .344-.144c.576-.216 1.345-.463 2.185-.463h1.435c.357 0 .726 0 1.025.213.149.074.291.198.394.351.047.06.058.115.061.204-.085.01-.167.008-.258.036-.058.023-.116.041-.172.059-.096.03-.187.06-.25.093-.137.059-.245.141-.35.22a1.671 1.671 0 0 1-.244.166 4.405 4.405 0 0 1-.443.144 5.423 5.423 0 0 0-.476.153l-.069.024c-.307.11-.573.206-.871.385-.219.132-.438.256-.657.38-.229.13-.459.26-.688.397-.442.266-.884.56-1.356.873-.133.089-.271.173-.409.259a8.719 8.719 0 0 0-.696.459c-.055.036-.11.069-.165.104-.132.08-.264.161-.375.255-.198.134-.362.29-.521.441-.073.069-.146.14-.226.209a13.96 13.96 0 0 0-.936.965 9.21 9.21 0 0 1-.202.195c-.146.139-.292.278-.44.448-.111.131-.219.266-.326.4a8.91 8.91 0 0 1-.646.752l-.124.121a2.71 2.71 0 0 0-.456.535A.48.48 0 0 0 8.01 74a4.433 4.433 0 0 0-.092-.214 6.445 6.445 0 0 1-.082-.19c-.087-.27-.128-.554-.104-.768zm3.398 5.202l-.168.004c-.14.005-.274.011-.383-.021-.246-.078-.512-.23-.789-.437.291.021.585.023.861.017.138-.004.271-.008.398-.008.637 0 1.211-.116 1.819-.24l.161-.032c1.157-.257 2.239-.981 3.193-1.62l.213-.143c.401-.268.816-.544 1.129-.863.251-.167.451-.379.645-.584l.084-.089c-.805.976-1.761 2.026-2.756 2.863-.297.25-1.55 1.072-2.106 1.136a9.301 9.301 0 0 1-2.301.017zm11.403-10.278c.07.039.138.076.212.113.308.141.481.367.688.72l.067.133c.156.307.333.655.359 1.024.072.431.017.902-.037 1.358l-.023.204c-.082.517-.196 1.115-.433 1.647-.255.613-.659 1.174-1.049 1.717l-.15.21c-.198.282-.43.602-.662.811a2.822 2.822 0 0 1-.45.259 5.67 5.67 0 0 0-.274.142l-.111.066c-.166.1-.322.194-.496.232-.158.029-.316.043-.475.058-.17.016-.341.031-.512.062a6.226 6.226 0 0 0-.507.123c-.16.044-.319.088-.435.112-.119 0-.317 0-.437.086a.781.781 0 0 0-.103.062.44.44 0 0 1-.111.058c-.239.12-.486.225-.732.33-.246.104-.493.209-.732.328-.384.192-.791.257-1.217.29a9.44 9.44 0 0 0 .946-.637c2.038-1.714 3.898-4.278 4.693-5.374.145-.199.255-.351.326-.442a.25.25 0 0 0-.356-.346c-.21.175-.652.633-1.12 1.118-.435.45-.884.916-1.073 1.074a5.52 5.52 0 0 0-.482.47c-.183.192-.355.375-.596.542-.317.315-.711.578-1.092.832l-.214.144c-.917.614-1.958 1.311-3.018 1.546l-.157.032c-.583.118-1.133.229-1.72.229-.131 0-.27.004-.412.008-.436.016-.885.025-1.254-.067a.232.232 0 0 0-.195.031l-.027-.024c-.403-.434-.673-.801-.781-1.309-.091-.298-.09-.687.001-1.083.084-.293.256-.46.495-.691l.129-.126c.25-.25.47-.526.684-.793.104-.132.209-.263.314-.387.135-.154.271-.283.406-.413.07-.066.14-.133.233-.228.285-.313.58-.638.892-.921.082-.071.16-.146.238-.221.149-.144.291-.278.474-.402.112-.093.224-.16.336-.229.06-.036.12-.073.192-.122.217-.163.445-.303.67-.442.144-.088.286-.176.452-.286.436-.29.872-.58 1.308-.842.226-.136.452-.264.678-.392.223-.126.445-.252.667-.386.256-.153.488-.237.783-.343l.077-.027c.141-.057.289-.099.437-.141.167-.048.333-.096.511-.168.13-.065.238-.146.34-.224.088-.066.164-.124.26-.165.056-.029.121-.048.188-.068.068-.021.139-.044.189-.065.386-.118.67.048 1.101.332.209.139.427.281.679.38.015.006.03.011.044.014a.254.254 0 0 0 .104.055c.092.023.184.042.278.062.145.029.293.06.476.119.163.038.343.136.516.231zm16.922-2.47c.39.845 1.015 1.519 1.619 2.17.363.392.706.761 1.004 1.171.648.81 1.021 1.906 1.143 3.361.011.092.028.202.046.325.096.633.273 1.811-.1 2.28a.538.538 0 0 1-.396.205c-.048 0-.107.004-.175.009-.259.02-.616.046-.875-.188-.246-.222-.378-.65-.395-1.273-.01-.394.003-.803.017-1.217.021-.627.043-1.275-.021-1.906-.161-.962-.84-1.616-1.497-2.25a12.043 12.043 0 0 1-.647-.654c-.186-.232-.326-.489-.475-.762-.152-.279-.309-.567-.494-.79a2.21 2.21 0 0 0-.158-.254 1.757 1.757 0 0 1-.24-.442 1.366 1.366 0 0 1-.083-.327 3.063 3.063 0 0 0-.103-.438.25.25 0 0 0-.473.158c.042.126.063.251.085.368.03.165.058.321.114.429l.007.015c-1.146.254-2.471.441-3.787.065-.244-.07-.771-.273-1.382-.509-1.127-.435-2.405-.927-2.923-.991-1.663-.334-3.192-.158-4.532.515-.719.307-2.818 1.878-3.511 2.42a3.757 3.757 0 0 1-.514-.297c-.234-.153-.49-.31-.781-.39-.001-.178-.015-.349-.161-.53-.016-.024-.041-.043-.059-.066.341-.176.902-.512 1.723-1.006 1.316-.791 2.953-1.775 3.569-1.953 2.851-.823 5.61.031 7.625.655 1.145.354 2.051.629 2.704.547 1.186-.159 2.026-1.789 2.568-4.983l.035-.2c.067-.335.136-.654.29-.936a9.17 9.17 0 0 0 .294 1.686c.191.621.589 1.17.974 1.7.051.07.09.137.139.205a.238.238 0 0 0-.1.188c0 .429-.097.875-.19 1.308-.183.857-.375 1.743.116 2.582zm14.105-6.841c-.384.479-.867.888-1.379 1.321-.207.175-.414.35-.637.553l-.273.317c-.396.463-.805.941-1.289 1.318-.351.254-.69.522-1.03.792-.888.704-1.726 1.368-2.755 1.761-1.213.497-2.45.205-4.013-.948-.667-.485-1.152-1.05-1.675-1.946-.181-.311-.4-.612-.611-.904-.377-.521-.734-1.013-.899-1.548-.483-1.727-.33-3.483-.132-5.133a17.349 17.349 0 0 1 1.375-4.881l.248-.553c.268-.602.545-1.224.861-1.803.231-.43.544-.793.876-1.177.197-.229.392-.467.577-.718-.054 1.415.026 3.172.511 4.867.079.314.149.644.22.978l.097.445c-.662.352-1.224 1.183-1.511 1.828-.149.348-.481 1.575-.168 2.243a.76.76 0 0 0 .489.427c.316.064.619-.046.859-.134.083-.03.163-.061.218-.075.196-.028.273.015.42.37.079.357.087.714.095 1.092.006.263.012.523.052.837.022.066.034.166.049.271.037.259.075.525.191.636.192.288.578.271.889.257l.196-.007c.265-.032.517-.176.76-.315.384-.219.631-.342.874-.196.109.047.23.248.336.426.165.275.352.588.671.646a.566.566 0 0 0 .101.009c.158 0 .322-.066.49-.2.44-.367.815-1.007.951-1.567.558.183 1.122.317 1.545.317.085 0 .165-.006.237-.018l.051.002c.176 0 .341-.017.466-.059.662-.332.662-1.173.662-1.624 0-.579-.12-1.182-.236-1.765-.085-.43-.166-.837-.204-1.244a13.141 13.141 0 0 0-.18-.947c-.063-.297-.128-.593-.171-.895-.084-.505-.084-1.118-.084-1.71 0-.128-.004-.252-.008-.373-.013-.438-.024-.815.157-1.176.166-.332.372-.609.599-.837-.258 1.373.642 3.143.759 3.364.138.251.268.511.397.771.264.527.537 1.073.877 1.559.221.305.455.586.689.868-.018.036-.042.07-.04.113.067 1.287-.695 3.443-1.55 4.365zm2.357-4.328c.057.04.111.081.144.105l.068.053c.413.294.734.294 1.142.294.209 0 .362-.054.467-.164.157-.163.146-.386.138-.583a2.423 2.423 0 0 1-.005-.15c0-.372-.13-.617-.276-.858-.015-.03-.045-.083-.084-.152-.342-.603-.456-.897-.486-1.042l.094.06c.195.125.521.338.81.039.223-.335-.196-.978-.242-1.014-.127-.21-.315-.369-.498-.522-.347-.291-.47-.422-.381-.651.024-.061.111-.147.188-.223.154-.152.328-.324.328-.568 0-.345-.304-.729-.586-.871-.168-.085-.33-.092-.473-.099-.074-.003-.153-.006-.195-.011-.229-.091-.467-.185-.677-.338a3.047 3.047 0 0 1-.784-.553c-.076-.075-.164-.207-.275-.37-.052-.07-.063-.125-.081-.214a1.708 1.708 0 0 0-.068-.214c0-.382.058-.625.176-.743.158-.157.495-.153.969-.15l.242.001c.909 0 1.27.417 1.768.993.184.212.392.453.652.693.205.174.417.33.626.484.348.256.672.495.928.791l.014.018c.251.295.437.646.509 1.129.054.403-.006.773-.068 1.166a7.06 7.06 0 0 0-.082.708l-.001.02c-.018.345.01.7.162 1.082l.114.334c.228.651.392 1.121.229 1.829-.021.084-.058.35-.103.688-.062.479-.203 1.528-.312 1.863a1.494 1.494 0 0 1-.465-.082c-.259-.07-.5-.17-.734-.266-.444-.183-.904-.371-1.491-.371l-.076-.002c-.163-.466-.568-1.122-.624-1.211a13.37 13.37 0 0 0-.701-.928zm18.616-.348c.127-.24.25-.474.404-.654a3.236 3.236 0 0 0-.132.284c-.087.174-.146.362-.209.562a5.86 5.86 0 0 1-.145.423 10.18 10.18 0 0 1-1.095 1.847c-.07.104-.14.214-.211.324-.353.548-.717 1.114-1.236 1.479a9.595 9.595 0 0 1-1.867.809 4.43 4.43 0 0 0-1.42.451l-.222.137c-.255.159-.475.298-.787.402-.652.261-1.31.261-2.07.261-.225 0-.436-.032-.659-.066-.403-.062-.85-.066-1.325-.104a7.696 7.696 0 0 0-.653-.036h-.044c-.71-.108-1.396-.405-2.06-.691a34.495 34.495 0 0 0-.467-.2 10.804 10.804 0 0 0-.952-.311c-.431-.125-.876-.255-1.262-.448a4.225 4.225 0 0 1-.558-.362 3.968 3.968 0 0 0-.59-.382c-.113-.084-.236-.158-.362-.234a2.568 2.568 0 0 1-.517-.37.934.934 0 0 1-.061-.067c.082-.031.279-.075.733-.075.14 0 .271.004.375.007l.171.004c.488 0 .883.162 1.302.334.248.102.504.207.766.276.246.099.509.108.764.118l.017.001c.15.005.305.01.45.033.166.033.333.084.499.134.183.055.365.109.555.146.385.064.767.19 1.204.334.393.159.775.157 1.168.156.91.15 1.609.212 2.413.212.501 0 .896 0 1.376-.235.41-.139.834-.28 1.204-.505.432-.287.746-.65.981-1.126.121-.2.179-.394.235-.58.049-.164.095-.318.183-.465.047-.076.093-.163.141-.252.107-.199.287-.533.413-.533.101 0 .24.047.376.092.173.058.352.117.532.117.806 0 1.718 0 2.292-.658.132-.178.243-.387.35-.589zm-1.451-1.327c.122.304.237.591.27.873 0 .105.042.585.194.911-.431.271-1.045.288-1.654.288-.1 0-.239-.047-.374-.092-.174-.058-.353-.117-.534-.117-.425 0-.662.441-.854.796a4.434 4.434 0 0 1-.129.231c-.12.201-.178.394-.233.579a2.03 2.03 0 0 1-.193.483 2.345 2.345 0 0 1-.812.944c-.313.189-.692.317-1.095.452-.011.004-.062.022-.072.027-.366.183-.676.183-1.145.183-.774 0-1.45-.06-2.372-.209-.401 0-.719 0-1.021-.122a1.657 1.657 0 0 0-.065-.022c-.403-.133-.821-.271-1.236-.34-.167-.033-.333-.084-.501-.134a5.691 5.691 0 0 0-.554-.147c-.063-.01-.125-.009-.188-.015.084-.323.171-.874.299-1.835.041-.311.072-.556.092-.637.197-.853-.006-1.436-.241-2.109l-.095-.275c.1.12.199.242.299.36.569.678 1.107 1.317 1.404 2.075l.053.203c.099.391.2.795.78 1.01.276.139.694.286 1.109-.023a.872.872 0 0 0 .318-.514c.062.08.126.154.198.211.229.301.412.471.732.551.138.046.301.073.468.073.231 0 .471-.054.658-.188a.803.803 0 0 0 .332-.685c0-.425-.384-.651-.723-.851-.223-.132-.476-.28-.491-.404.117-.072.692.061.944.178.756.628 1.398.884 1.913.755.427-.107.704-.537.599-.955-.09-.273-.411-.483-.669-.651l-.042-.025c-.463-.388-.922-.539-1.411-.678-.268-.101-.517-.361-.758-.621.341.053.65.081.923.081.663 0 1.151-.129 1.609-.25.422-.111.82-.216 1.324-.216.597 0 1.158-.269 1.652-.64.438.303 1.057.93 1.179 1.205.036.096.074.191.113.286zm2.89-4.845c-.085.169-.206.323-.334.486-.14.178-.284.362-.387.57-.137.244-.355.448-.566.646-.135.126-.266.25-.387.392-.242.324-1.058.973-1.722 1.258a5.294 5.294 0 0 0-.391-.327c.924-.851 1.528-1.955 1.531-1.962.109-.183.24-.352.371-.52.227-.292.46-.594.601-.981.16-.524.015-1.034-.113-1.485a4.673 4.673 0 0 1-.128-.516 4.154 4.154 0 0 1-.028-.278c.183-.157.471-.461.815-.875.184.212.347.431.507.684.24.376.43 1.095.507 1.582l-.001.003.001.003c.023.147.037.276.037.363 0 .358-.155.678-.313.957zm16.181-18.876c-.065.175-.123.33-.152.434-.289.793-.659 1.604-.985 2.319-.325.716-.723 1.401-1.27 2.188-.064.128-.146.24-.226.353a2.878 2.878 0 0 0-.254.398c-.037.056-.091.128-.148.205-.266.359-.392.546-.392.713 0 .103.062.194.157.232.253.101.534.087.81.075.096-.004.186-.007.279-.008a2.928 2.928 0 0 1-.268.432l-.108.167c-.138.34-.271.609-.484.965-.295.542-.818.979-1.373 1.44-.189.157-.379.315-.52.449a10.98 10.98 0 0 0-.509.326 12.85 12.85 0 0 1-.505.325c-.112.084-.236.156-.357.227-.184.107-.373.218-.518.362-.024.025-.047.039-.062.05-.28.19-.124.424-.056.523.081.16.271.267.44.361l.104.058c.019.019.04.034.063.046l.183.089c.108.052.218.104.317.16l-.016.005a1.886 1.886 0 0 0-.202.078 3.277 3.277 0 0 0-.424.269c-.113.081-.226.163-.374.238-.548.341-1.257.768-1.883 1.046-.677.301-1.211.493-1.747.628-.271.067-.525.13-.773.13-.043 0-.099-.003-.161-.007-.384-.023-.689-.025-.837.127-.326.243-.104.605.027.822.09.148.202.332.184.396-.033.053-.211.199-1.159.434-.24.034-.743.069-1.229.104a43.41 43.41 0 0 0-1.027.08c-.102-.518-.288-1.156-.535-1.542a5.942 5.942 0 0 0-.609-.809 15.942 15.942 0 0 0 1.487-2.261c.02-.008.042-.006.061-.02.13-.098.31-.183.5-.273.16-.076.324-.153.45-.231a13.63 13.63 0 0 0 2.184-1.231c.198-.165.412-.33.627-.496.217-.167.434-.333.637-.503.238-.205.46-.426.681-.647.211-.21.422-.421.641-.61l1.018-.815c.141-.141.265-.298.388-.457.109-.141.219-.282.355-.419.224-.256.489-.505.746-.747.266-.249.54-.506.781-.782.271-.311.574-.581.867-.842.199-.178.396-.354.594-.55.124-.139.356-.397.2-.631-.162-.244-.508-.122-.908.02-.083.03-.156.056-.254.087-.157.079-.314.154-.471.229-.657.317-1.278.617-1.837 1.062-.305.25-.621.475-.938.703-.44.315-.896.64-1.318 1.025-.737.603-1.482 1.28-2.212 1.943-.396.397-.807.78-1.217 1.164-.158.148-.312.301-.471.451.504-1.491.774-2.993.773-4.485 0-.252-.036-.494-.067-.737.614-.616 1.152-1.148 1.952-1.547.137-.068.289-.136.443-.204.165-.074.331-.148.457-.212.137-.054.283-.137.433-.222.144-.082.301-.172.437-.22.008.131-.032.291-.07.447-.038.156-.078.317-.078.472 0 .138.112.25.25.25.345 0 .626-.295.852-.532l.079-.082c.186-.099.34-.22.478-.328.075-.059.146-.115.209-.157.229-.138.544-.25.821-.35.123-.044.24-.086.333-.123.217-.072.415-.145.613-.217.19-.07.382-.139.603-.213.148-.059.295-.129.438-.197.113-.054.224-.107.324-.148.01.142-.021.369-.098.602a.25.25 0 0 0 .273.326c.477-.068.914-.438 1.267-.735.07-.06.138-.117.205-.17.142-.118.282-.244.424-.37.273-.244.558-.496.828-.676.175-.116.361-.22.545-.322.26-.144.527-.293.721-.451.15-.091.304-.238.466-.395.108-.104.301-.289.437-.377.022.349-.199.939-.34 1.316z"></path><path d="M52.642 42.708c-.322 0-.632-.311-.897-.576-.427-.356-.735-.752-.931-1.201a3.798 3.798 0 0 1-.188-.454c-.221-.589-.497-1.322-1.034-1.533a.856.856 0 0 0-.714.048c-.594.254-.584.919-.576 1.405l.001.164c0 .215 0 .507.072.75a.98.98 0 0 0 .053.218c.014.043.037.115.042.119-.037.073-.33.171-.487.224-.206.069-.418.14-.573.257-.333.266-.546.708-.658 1.393 0 .07-.004.146-.008.225-.022.411-.056 1.031.512 1.273.189.082.354.102.488.119.06.007.151.019.17.033 0 0 .037.043.037.253 0 .489-.253.869-.542 1.309-.311.698-.374 1.306-.374 2.004 0 .969.113 1.713.379 2.44l.058.122c.137.297.344.745.689.865.057.021.116.03.175.03a.604.604 0 0 0 .276-.07c.42-.252.374-1.002.343-1.499a3.643 3.643 0 0 1-.009-.195c0-.169-.016-.354-.031-.541-.01-.118-.021-.238-.026-.354l.086.174.048.094c.021.063.034.142.048.222.036.203.076.434.224.582a.252.252 0 0 0 .354.001c.426-.426.426-1.07.426-1.588 0-.638 0-1.24.139-1.872.059-.478.3-1.142.69-1.533.258-.221.532-.333.741-.294.145.026.262.123.357.296.067.121.22.164.34.098a.25.25 0 0 0 .098-.34c-.214-.385-.502-.509-.707-.546-.364-.067-.772.079-1.168.419-.522.522-.783 1.317-.843 1.815-.147.662-.147 1.32-.147 1.957 0 .246 0 .509-.046.743a1.758 1.758 0 0 0-.044-.15l-.06-.121c-.128-.265-.288-.595-.578-.812a.25.25 0 0 0-.388.121c-.111.333-.076.739-.042 1.131.015.173.03.343.03.499 0 .054.004.132.01.226.048.78-.028.996-.13 1.037-.145-.051-.324-.438-.4-.604l-.053-.11c-.233-.643-.337-1.335-.337-2.243 0-.634.056-1.183.311-1.764.298-.446.606-.908.606-1.549 0-.648-.305-.74-.645-.783-.112-.014-.228-.028-.353-.082-.229-.098-.232-.375-.21-.787.005-.088.009-.173.006-.21.086-.517.241-.858.467-1.04.084-.063.258-.122.426-.178.318-.107.647-.217.775-.475.089-.177.03-.361-.013-.496-.012-.037-.03-.092-.031-.11a.238.238 0 0 0-.013-.079c-.057-.173-.057-.435-.057-.626l-.002-.171c-.007-.493.007-.824.287-.944.163-.081.261-.059.321-.036.33.129.582.8.749 1.243.08.214.149.398.21.5.213.497.569.956 1.04 1.347.297.299.704.708 1.234.708.138 0 .25-.112.25-.25s-.116-.248-.253-.248z"></path><path d="M48.939 44.808c-.075.206-.177.704-.062.982.06.143.159.201.23.225a.331.331 0 0 0 .105.018c.271 0 .518-.361.874-.917.086-.134.155-.248.232-.338.272-.455.672-.462 1.346-.447.112.003.227.006.343.006a.25.25 0 0 0 .247-.286.248.248 0 0 0-.205-.282c-.356-.06-.805-.303-1.084-.513-.072-.058-.144-.125-.217-.192-.306-.285-.687-.638-1.23-.479-.469.186-.452.759-.442 1.102l.002.118c0 .136.024.231.043.308a.741.741 0 0 1 .025.128l-.01.019c-.078.142-.182.333-.197.548zm.472.165a.255.255 0 0 0 .026-.111c0-.109.076-.25.138-.362l.047-.087a.247.247 0 0 0 .027-.113c0-.136-.024-.231-.043-.308-.016-.064-.028-.111-.028-.186l-.002-.132c-.006-.198-.017-.566.104-.615a.386.386 0 0 1 .105-.015c.191 0 .371.153.623.387.083.077.164.152.251.222.082.062.18.129.289.195-.403.048-.77.199-1.02.626-.06.06-.131.169-.262.374-.075.117-.212.331-.332.492.014-.145.047-.304.077-.367zM30.691 32.911a4.831 4.831 0 0 1-.019-.367c0-.418-.08-.822-.157-1.211l-.057-.294c-.062-.31-.113-.619-.165-.929-.052-.314-.104-.629-.167-.943a.25.25 0 0 0-.496.049v3.08c0 .236-.059.486-.122.752a9.888 9.888 0 0 0-.078.35c-.257.994-.383 2.158-.383 3.559 0 .293.039.583.076.863.018.137.037.273.049.385 0 .087.007.182.014.278.012.165.025.335-.004.457-.01.029-.02.057-.032.084a.25.25 0 0 0 .455.208.854.854 0 0 0 .057-.152c.11-.343.127-.727.144-1.098.012-.268.023-.52.07-.723.098-.458.221-.915.351-1.394l.358-1.655c.012-.074.029-.148.045-.223.039-.179.083-.381.083-.609a5.474 5.474 0 0 0-.022-.467zm-.549.968a3.913 3.913 0 0 0-.048.24l-.216 1.077-.133.538c-.066.244-.13.481-.19.717.027-1.135.146-2.098.364-2.942.024-.119.051-.234.078-.347.069-.294.135-.573.135-.867v-.272c.025.174.041.349.041.521 0 .126.01.262.02.403.011.14.021.284.021.429 0 .175-.035.334-.072.503zM28.812 41.788a.25.25 0 0 0-.297.186 2.411 2.411 0 0 1-.039.144c-.101.291-.327.59-.526.854l-.066.088c-.276.413-.452.87-.616 1.322-.151.557-.316.989-.527 1.376a15.188 15.188 0 0 0-.587 1.467c-.072.179-.136.358-.198.533-.082.23-.162.455-.251.655-.253.506-.603.925-.882 1.239-.105.123-.203.253-.3.381a4.425 4.425 0 0 1-.395.479l-.375.375c-.019.018-.047.035-.077.055-.109.073-.259.173-.344.344a.252.252 0 0 0 .158.353c.096.026.196.039.299.039.318 0 .611-.122.87-.23a4.56 4.56 0 0 1 .291-.114c.44-.2.7-.549.952-.887l.147-.195c.27-.385.404-.761.546-1.16l.063-.178c.211-.507.381-1.02.542-1.502.044-.111.091-.219.139-.326.131-.299.267-.608.332-.965.082-.407.208-.869.327-1.309.062-.206.134-.412.206-.618.074-.21.147-.421.2-.602l.104-.23c.147-.322.331-.722.443-1.089.021-.063.039-.126.052-.189a.251.251 0 0 0-.191-.296zm-1.632 4.236c-.055.304-.173.573-.298.858-.049.112-.099.225-.15.355-.162.487-.33.991-.538 1.492l-.069.192c-.136.381-.253.71-.477 1.03l-.146.193c-.224.3-.435.583-.734.721a4.22 4.22 0 0 0-.301.118 6.454 6.454 0 0 1-.175.072l.191-.191c.161-.16.303-.35.441-.532.09-.121.182-.242.277-.354.296-.332.673-.785.958-1.354.099-.222.183-.458.27-.7.061-.17.123-.343.197-.53.144-.432.331-.9.564-1.415l.002-.003a.306.306 0 0 0-.012.048z"></path></g><!----></svg>